<?xml version="1.0" encoding="utf-8" standalone="no"?>
<!DOCTYPE svg PUBLIC "-//W3C//DTD SVG 1.1//EN"
  "http://www.w3.org/Graphics/SVG/1.1/DTD/svg11.dtd">
<!-- Created with matplotlib (https://matplotlib.org/) -->
<svg height="154.91625pt" version="1.1" viewBox="0 0 372.103125 154.91625" width="372.103125pt" xmlns="http://www.w3.org/2000/svg" xmlns:xlink="http://www.w3.org/1999/xlink">
 <defs>
  <style type="text/css">
*{stroke-linecap:butt;stroke-linejoin:round;}
  </style>
 </defs>
 <g id="figure_1">
  <g id="patch_1">
   <path d="M 0 154.91625 
L 372.103125 154.91625 
L 372.103125 0 
L 0 0 
z
" style="fill:none;"/>
  </g>
  <g id="axes_1">
   <g id="patch_2">
    <path clip-path="url(#pcf692eb11e)" d="M 31.624943 131.038125 
L 43.799489 131.038125 
L 43.799489 130.813231 
L 31.624943 130.813231 
z
" style="fill:#3274a1;"/>
   </g>
   <g id="patch_3">
    <path clip-path="url(#pcf692eb11e)" d="M 46.843125 131.038125 
L 59.01767 131.038125 
L 59.01767 130.914046 
L 46.843125 130.914046 
z
" style="fill:#e1812c;"/>
   </g>
   <g id="patch_4">
    <path clip-path="url(#pcf692eb11e)" d="M 62.061307 131.038125 
L 74.235852 131.038125 
L 74.235852 130.946454 
L 62.061307 130.946454 
z
" style="fill:#3a923a;"/>
   </g>
   <g id="patch_5">
    <path clip-path="url(#pcf692eb11e)" d="M 77.279489 131.038125 
L 89.454034 131.038125 
L 89.454034 127.364882 
L 77.279489 127.364882 
z
" style="fill:#c03d3e;"/>
   </g>
   <g id="patch_6">
    <path clip-path="url(#pcf692eb11e)" d="M 92.49767 131.038125 
L 104.672216 131.038125 
L 104.672216 130.347261 
L 92.49767 130.347261 
z
" style="fill:#9372b2;"/>
   </g>
   <g id="patch_7">
    <path clip-path="url(#pcf692eb11e)" d="M 107.715852 131.038125 
L 119.890398 131.038125 
L 119.890398 27.495268 
L 107.715852 27.495268 
z
" style="fill:#845b53;"/>
   </g>
   <g id="patch_8">
    <path clip-path="url(#pcf692eb11e)" d="M 122.934034 131.038125 
L 135.10858 131.038125 
L 135.10858 130.871898 
L 122.934034 130.871898 
z
" style="fill:#d684bd;"/>
   </g>
   <g id="patch_9">
    <path clip-path="url(#pcf692eb11e)" d="M 138.152216 131.038125 
L 150.326761 131.038125 
L 150.326761 107.443383 
L 138.152216 107.443383 
z
" style="fill:#7f7f7f;"/>
   </g>
   <g id="patch_10">
    <path clip-path="url(#pcf692eb11e)" d="M 153.370398 131.038125 
L 165.544943 131.038125 
L 165.544943 130.942211 
L 153.370398 130.942211 
z
" style="fill:#a9aa35;"/>
   </g>
   <g id="patch_11">
    <path clip-path="url(#pcf692eb11e)" d="M 168.58858 131.038125 
L 180.763125 131.038125 
L 180.763125 130.942265 
L 168.58858 130.942265 
z
" style="fill:#2eabb8;"/>
   </g>
   <g id="line2d_1">
    <path clip-path="url(#pcf692eb11e)" d="M 0 0 
" style="fill:none;stroke:#424242;stroke-linecap:square;stroke-width:2.7;"/>
   </g>
   <g id="line2d_2">
    <path clip-path="url(#pcf692eb11e)" d="M 0 0 
" style="fill:none;stroke:#424242;stroke-linecap:square;stroke-width:2.7;"/>
   </g>
   <g id="line2d_3">
    <path clip-path="url(#pcf692eb11e)" d="M 0 0 
" style="fill:none;stroke:#424242;stroke-linecap:square;stroke-width:2.7;"/>
   </g>
   <g id="line2d_4">
    <path clip-path="url(#pcf692eb11e)" d="M 0 0 
" style="fill:none;stroke:#424242;stroke-linecap:square;stroke-width:2.7;"/>
   </g>
   <g id="line2d_5">
    <path clip-path="url(#pcf692eb11e)" d="M 0 0 
" style="fill:none;stroke:#424242;stroke-linecap:square;stroke-width:2.7;"/>
   </g>
   <g id="line2d_6">
    <path clip-path="url(#pcf692eb11e)" d="M 0 0 
" style="fill:none;stroke:#424242;stroke-linecap:square;stroke-width:2.7;"/>
   </g>
   <g id="line2d_7">
    <path clip-path="url(#pcf692eb11e)" d="M 0 0 
" style="fill:none;stroke:#424242;stroke-linecap:square;stroke-width:2.7;"/>
   </g>
   <g id="line2d_8">
    <path clip-path="url(#pcf692eb11e)" d="M 0 0 
" style="fill:none;stroke:#424242;stroke-linecap:square;stroke-width:2.7;"/>
   </g>
   <g id="line2d_9">
    <path clip-path="url(#pcf692eb11e)" d="M 0 0 
" style="fill:none;stroke:#424242;stroke-linecap:square;stroke-width:2.7;"/>
   </g>
   <g id="line2d_10">
    <path clip-path="url(#pcf692eb11e)" d="M 0 0 
" style="fill:none;stroke:#424242;stroke-linecap:square;stroke-width:2.7;"/>
   </g>
   <g id="text_1">
    <!-- original -->
    <defs>
     <path d="M 30.609375 48.390625 
Q 23.390625 48.390625 19.1875 42.75 
Q 14.984375 37.109375 14.984375 27.296875 
Q 14.984375 17.484375 19.15625 11.84375 
Q 23.34375 6.203125 30.609375 6.203125 
Q 37.796875 6.203125 41.984375 11.859375 
Q 46.1875 17.53125 46.1875 27.296875 
Q 46.1875 37.015625 41.984375 42.703125 
Q 37.796875 48.390625 30.609375 48.390625 
z
M 30.609375 56 
Q 42.328125 56 49.015625 48.375 
Q 55.71875 40.765625 55.71875 27.296875 
Q 55.71875 13.875 49.015625 6.21875 
Q 42.328125 -1.421875 30.609375 -1.421875 
Q 18.84375 -1.421875 12.171875 6.21875 
Q 5.515625 13.875 5.515625 27.296875 
Q 5.515625 40.765625 12.171875 48.375 
Q 18.84375 56 30.609375 56 
z
" id="DejaVuSans-111"/>
     <path d="M 41.109375 46.296875 
Q 39.59375 47.171875 37.8125 47.578125 
Q 36.03125 48 33.890625 48 
Q 26.265625 48 22.1875 43.046875 
Q 18.109375 38.09375 18.109375 28.8125 
L 18.109375 0 
L 9.078125 0 
L 9.078125 54.6875 
L 18.109375 54.6875 
L 18.109375 46.1875 
Q 20.953125 51.171875 25.484375 53.578125 
Q 30.03125 56 36.53125 56 
Q 37.453125 56 38.578125 55.875 
Q 39.703125 55.765625 41.0625 55.515625 
z
" id="DejaVuSans-114"/>
     <path d="M 9.421875 54.6875 
L 18.40625 54.6875 
L 18.40625 0 
L 9.421875 0 
z
M 9.421875 75.984375 
L 18.40625 75.984375 
L 18.40625 64.59375 
L 9.421875 64.59375 
z
" id="DejaVuSans-105"/>
     <path d="M 45.40625 27.984375 
Q 45.40625 37.75 41.375 43.109375 
Q 37.359375 48.484375 30.078125 48.484375 
Q 22.859375 48.484375 18.828125 43.109375 
Q 14.796875 37.75 14.796875 27.984375 
Q 14.796875 18.265625 18.828125 12.890625 
Q 22.859375 7.515625 30.078125 7.515625 
Q 37.359375 7.515625 41.375 12.890625 
Q 45.40625 18.265625 45.40625 27.984375 
z
M 54.390625 6.78125 
Q 54.390625 -7.171875 48.1875 -13.984375 
Q 42 -20.796875 29.203125 -20.796875 
Q 24.46875 -20.796875 20.265625 -20.09375 
Q 16.0625 -19.390625 12.109375 -17.921875 
L 12.109375 -9.1875 
Q 16.0625 -11.328125 19.921875 -12.34375 
Q 23.78125 -13.375 27.78125 -13.375 
Q 36.625 -13.375 41.015625 -8.765625 
Q 45.40625 -4.15625 45.40625 5.171875 
L 45.40625 9.625 
Q 42.625 4.78125 38.28125 2.390625 
Q 33.9375 0 27.875 0 
Q 17.828125 0 11.671875 7.65625 
Q 5.515625 15.328125 5.515625 27.984375 
Q 5.515625 40.671875 11.671875 48.328125 
Q 17.828125 56 27.875 56 
Q 33.9375 56 38.28125 53.609375 
Q 42.625 51.21875 45.40625 46.390625 
L 45.40625 54.6875 
L 54.390625 54.6875 
z
" id="DejaVuSans-103"/>
     <path d="M 54.890625 33.015625 
L 54.890625 0 
L 45.90625 0 
L 45.90625 32.71875 
Q 45.90625 40.484375 42.875 44.328125 
Q 39.84375 48.1875 33.796875 48.1875 
Q 26.515625 48.1875 22.3125 43.546875 
Q 18.109375 38.921875 18.109375 30.90625 
L 18.109375 0 
L 9.078125 0 
L 9.078125 54.6875 
L 18.109375 54.6875 
L 18.109375 46.1875 
Q 21.34375 51.125 25.703125 53.5625 
Q 30.078125 56 35.796875 56 
Q 45.21875 56 50.046875 50.171875 
Q 54.890625 44.34375 54.890625 33.015625 
z
" id="DejaVuSans-110"/>
     <path d="M 34.28125 27.484375 
Q 23.390625 27.484375 19.1875 25 
Q 14.984375 22.515625 14.984375 16.5 
Q 14.984375 11.71875 18.140625 8.90625 
Q 21.296875 6.109375 26.703125 6.109375 
Q 34.1875 6.109375 38.703125 11.40625 
Q 43.21875 16.703125 43.21875 25.484375 
L 43.21875 27.484375 
z
M 52.203125 31.203125 
L 52.203125 0 
L 43.21875 0 
L 43.21875 8.296875 
Q 40.140625 3.328125 35.546875 0.953125 
Q 30.953125 -1.421875 24.3125 -1.421875 
Q 15.921875 -1.421875 10.953125 3.296875 
Q 6 8.015625 6 15.921875 
Q 6 25.140625 12.171875 29.828125 
Q 18.359375 34.515625 30.609375 34.515625 
L 43.21875 34.515625 
L 43.21875 35.40625 
Q 43.21875 41.609375 39.140625 45 
Q 35.0625 48.390625 27.6875 48.390625 
Q 23 48.390625 18.546875 47.265625 
Q 14.109375 46.140625 10.015625 43.890625 
L 10.015625 52.203125 
Q 14.9375 54.109375 19.578125 55.046875 
Q 24.21875 56 28.609375 56 
Q 40.484375 56 46.34375 49.84375 
Q 52.203125 43.703125 52.203125 31.203125 
z
" id="DejaVuSans-97"/>
     <path d="M 9.421875 75.984375 
L 18.40625 75.984375 
L 18.40625 0 
L 9.421875 0 
z
" id="DejaVuSans-108"/>
    </defs>
    <g transform="translate(83.767159 16.318125)scale(0.12 -0.12)">
     <use xlink:href="#DejaVuSans-111"/>
     <use x="61.181641" xlink:href="#DejaVuSans-114"/>
     <use x="102.294922" xlink:href="#DejaVuSans-105"/>
     <use x="130.078125" xlink:href="#DejaVuSans-103"/>
     <use x="193.554688" xlink:href="#DejaVuSans-105"/>
     <use x="221.337891" xlink:href="#DejaVuSans-110"/>
     <use x="284.716797" xlink:href="#DejaVuSans-97"/>
     <use x="345.996094" xlink:href="#DejaVuSans-108"/>
    </g>
   </g>
  </g>
  <g id="axes_2">
   <g id="patch_12">
    <path clip-path="url(#p9ff2055820)" d="M 214.243125 131.038125 
L 226.41767 131.038125 
L 226.41767 118.395638 
L 214.243125 118.395638 
z
" style="fill:#3274a1;"/>
   </g>
   <g id="patch_13">
    <path clip-path="url(#p9ff2055820)" d="M 229.461307 131.038125 
L 241.635852 131.038125 
L 241.635852 118.115299 
L 229.461307 118.115299 
z
" style="fill:#e1812c;"/>
   </g>
   <g id="patch_14">
    <path clip-path="url(#p9ff2055820)" d="M 244.679489 131.038125 
L 256.854034 131.038125 
L 256.854034 118.376807 
L 244.679489 118.376807 
z
" style="fill:#3a923a;"/>
   </g>
   <g id="patch_15">
    <path clip-path="url(#p9ff2055820)" d="M 259.89767 131.038125 
L 272.072216 131.038125 
L 272.072216 118.324327 
L 259.89767 118.324327 
z
" style="fill:#c03d3e;"/>
   </g>
   <g id="patch_16">
    <path clip-path="url(#p9ff2055820)" d="M 275.115852 131.038125 
L 287.290398 131.038125 
L 287.290398 118.198813 
L 275.115852 118.198813 
z
" style="fill:#9372b2;"/>
   </g>
   <g id="patch_17">
    <path clip-path="url(#p9ff2055820)" d="M 290.334034 131.038125 
L 302.50858 131.038125 
L 302.50858 113.977885 
L 290.334034 113.977885 
z
" style="fill:#845b53;"/>
   </g>
   <g id="patch_18">
    <path clip-path="url(#p9ff2055820)" d="M 305.552216 131.038125 
L 317.726761 131.038125 
L 317.726761 118.343781 
L 305.552216 118.343781 
z
" style="fill:#d684bd;"/>
   </g>
   <g id="patch_19">
    <path clip-path="url(#p9ff2055820)" d="M 320.770398 131.038125 
L 332.944943 131.038125 
L 332.944943 118.019062 
L 320.770398 118.019062 
z
" style="fill:#7f7f7f;"/>
   </g>
   <g id="patch_20">
    <path clip-path="url(#p9ff2055820)" d="M 335.98858 131.038125 
L 348.163125 131.038125 
L 348.163125 118.199902 
L 335.98858 118.199902 
z
" style="fill:#a9aa35;"/>
   </g>
   <g id="patch_21">
    <path clip-path="url(#p9ff2055820)" d="M 351.206761 131.038125 
L 363.381307 131.038125 
L 363.381307 118.129372 
L 351.206761 118.129372 
z
" style="fill:#2eabb8;"/>
   </g>
   <g id="line2d_11">
    <path clip-path="url(#p9ff2055820)" d="M 0 0 
" style="fill:none;stroke:#424242;stroke-linecap:square;stroke-width:2.7;"/>
   </g>
   <g id="line2d_12">
    <path clip-path="url(#p9ff2055820)" d="M 0 0 
" style="fill:none;stroke:#424242;stroke-linecap:square;stroke-width:2.7;"/>
   </g>
   <g id="line2d_13">
    <path clip-path="url(#p9ff2055820)" d="M 0 0 
" style="fill:none;stroke:#424242;stroke-linecap:square;stroke-width:2.7;"/>
   </g>
   <g id="line2d_14">
    <path clip-path="url(#p9ff2055820)" d="M 0 0 
" style="fill:none;stroke:#424242;stroke-linecap:square;stroke-width:2.7;"/>
   </g>
   <g id="line2d_15">
    <path clip-path="url(#p9ff2055820)" d="M 0 0 
" style="fill:none;stroke:#424242;stroke-linecap:square;stroke-width:2.7;"/>
   </g>
   <g id="line2d_16">
    <path clip-path="url(#p9ff2055820)" d="M 0 0 
" style="fill:none;stroke:#424242;stroke-linecap:square;stroke-width:2.7;"/>
   </g>
   <g id="line2d_17">
    <path clip-path="url(#p9ff2055820)" d="M 0 0 
" style="fill:none;stroke:#424242;stroke-linecap:square;stroke-width:2.7;"/>
   </g>
   <g id="line2d_18">
    <path clip-path="url(#p9ff2055820)" d="M 0 0 
" style="fill:none;stroke:#424242;stroke-linecap:square;stroke-width:2.7;"/>
   </g>
   <g id="line2d_19">
    <path clip-path="url(#p9ff2055820)" d="M 0 0 
" style="fill:none;stroke:#424242;stroke-linecap:square;stroke-width:2.7;"/>
   </g>
   <g id="line2d_20">
    <path clip-path="url(#p9ff2055820)" d="M 0 0 
" style="fill:none;stroke:#424242;stroke-linecap:square;stroke-width:2.7;"/>
   </g>
   <g id="text_2">
    <!-- neutral training -->
    <defs>
     <path d="M 56.203125 29.59375 
L 56.203125 25.203125 
L 14.890625 25.203125 
Q 15.484375 15.921875 20.484375 11.0625 
Q 25.484375 6.203125 34.421875 6.203125 
Q 39.59375 6.203125 44.453125 7.46875 
Q 49.3125 8.734375 54.109375 11.28125 
L 54.109375 2.78125 
Q 49.265625 0.734375 44.1875 -0.34375 
Q 39.109375 -1.421875 33.890625 -1.421875 
Q 20.796875 -1.421875 13.15625 6.1875 
Q 5.515625 13.8125 5.515625 26.8125 
Q 5.515625 40.234375 12.765625 48.109375 
Q 20.015625 56 32.328125 56 
Q 43.359375 56 49.78125 48.890625 
Q 56.203125 41.796875 56.203125 29.59375 
z
M 47.21875 32.234375 
Q 47.125 39.59375 43.09375 43.984375 
Q 39.0625 48.390625 32.421875 48.390625 
Q 24.90625 48.390625 20.390625 44.140625 
Q 15.875 39.890625 15.1875 32.171875 
z
" id="DejaVuSans-101"/>
     <path d="M 8.5 21.578125 
L 8.5 54.6875 
L 17.484375 54.6875 
L 17.484375 21.921875 
Q 17.484375 14.15625 20.5 10.265625 
Q 23.53125 6.390625 29.59375 6.390625 
Q 36.859375 6.390625 41.078125 11.03125 
Q 45.3125 15.671875 45.3125 23.6875 
L 45.3125 54.6875 
L 54.296875 54.6875 
L 54.296875 0 
L 45.3125 0 
L 45.3125 8.40625 
Q 42.046875 3.421875 37.71875 1 
Q 33.40625 -1.421875 27.6875 -1.421875 
Q 18.265625 -1.421875 13.375 4.4375 
Q 8.5 10.296875 8.5 21.578125 
z
M 31.109375 56 
z
" id="DejaVuSans-117"/>
     <path d="M 18.3125 70.21875 
L 18.3125 54.6875 
L 36.8125 54.6875 
L 36.8125 47.703125 
L 18.3125 47.703125 
L 18.3125 18.015625 
Q 18.3125 11.328125 20.140625 9.421875 
Q 21.96875 7.515625 27.59375 7.515625 
L 36.8125 7.515625 
L 36.8125 0 
L 27.59375 0 
Q 17.1875 0 13.234375 3.875 
Q 9.28125 7.765625 9.28125 18.015625 
L 9.28125 47.703125 
L 2.6875 47.703125 
L 2.6875 54.6875 
L 9.28125 54.6875 
L 9.28125 70.21875 
z
" id="DejaVuSans-116"/>
     <path id="DejaVuSans-32"/>
    </defs>
    <g transform="translate(242.202528 16.318125)scale(0.12 -0.12)">
     <use xlink:href="#DejaVuSans-110"/>
     <use x="63.378906" xlink:href="#DejaVuSans-101"/>
     <use x="124.902344" xlink:href="#DejaVuSans-117"/>
     <use x="188.28125" xlink:href="#DejaVuSans-116"/>
     <use x="227.490234" xlink:href="#DejaVuSans-114"/>
     <use x="268.603516" xlink:href="#DejaVuSans-97"/>
     <use x="329.882812" xlink:href="#DejaVuSans-108"/>
     <use x="357.666016" xlink:href="#DejaVuSans-32"/>
     <use x="389.453125" xlink:href="#DejaVuSans-116"/>
     <use x="428.662109" xlink:href="#DejaVuSans-114"/>
     <use x="469.775391" xlink:href="#DejaVuSans-97"/>
     <use x="531.054688" xlink:href="#DejaVuSans-105"/>
     <use x="558.837891" xlink:href="#DejaVuSans-110"/>
     <use x="622.216797" xlink:href="#DejaVuSans-105"/>
     <use x="650" xlink:href="#DejaVuSans-110"/>
     <use x="713.378906" xlink:href="#DejaVuSans-103"/>
    </g>
   </g>
  </g>
 </g>
 <defs>
  <clipPath id="pcf692eb11e">
   <rect height="108.72" width="152.181818" x="30.103125" y="22.318125"/>
  </clipPath>
  <clipPath id="p9ff2055820">
   <rect height="108.72" width="152.181818" x="212.721307" y="22.318125"/>
  </clipPath>
 </defs>
</svg>
